<svg width="328" height="139" viewBox="0 0 328 139" fill="none" xmlns="http://www.w3.org/2000/svg">
<g clip-path="url(#clip0_9_10)">
<rect x="0.733139" y="0.733154" width="327" height="138" rx="10" fill="#242424"/>
<path d="M26.3275 0.726366C101.59 -5.35596 89.8164 -40.2793 165.079 -46.3616C240.341 -52.4439 232.202 -42.2197 307.464 -48.302C382.726 -54.3844 372.395 -37.8328 447.658 -43.9152C522.92 -49.9975 536.316 -43.0062 611.578 -49.0885" stroke="white" stroke-opacity="0.1" stroke-width="2.0694" stroke-linecap="round"/>
<path d="M26.3268 0.72682C99.8632 -5.21604 107.254 -30.7549 180.791 -36.6978C254.327 -42.6406 240.545 -61.3433 314.082 -67.2862C387.618 -73.2291 388.462 -45.2807 461.998 -51.2235C535.535 -57.1664 540.663 -43.46 614.199 -49.4029" stroke="white" stroke-opacity="0.1" stroke-width="2.0694" stroke-linecap="round"/>
<circle cx="10.2331" cy="156.233" r="45.5" fill="#469B88"/>
<path d="M252.301 -8.71085L345.733 -8.71085V80.9561C345.733 80.9561 303.743 85.4052 293.712 38.6894C283.682 -8.02637 252.301 -8.71085 252.301 -8.71085Z" fill="#EBB850"/>
<path d="M246.654 -17.2668L340.086 -17.2668V72.4001C340.086 72.4001 340.257 32.0157 288.066 30.1334C235.874 28.2511 246.654 -17.2668 246.654 -17.2668Z" fill="#377CC8"/>
</g>
<defs>
<clipPath id="clip0_9_10">
<rect x="0.733139" y="0.733154" width="327" height="138" rx="10" fill="white"/>
</clipPath>
</defs>
</svg>
